<?xml version="1.0" standalone="no"?>
<!DOCTYPE svg PUBLIC "-//W3C//DTD SVG 20010904//EN"
 "http://www.w3.org/TR/2001/REC-SVG-20010904/DTD/svg10.dtd">
<svg version="1.0" xmlns="http://www.w3.org/2000/svg"
 width="530.000000pt" height="277.000000pt" viewBox="0 0 530.000000 277.000000"
 preserveAspectRatio="xMidYMid meet">

<g transform="translate(0.000000,277.000000) scale(0.100000,-0.100000)"
fill="#000000" stroke="none">
<path d="M4858 1917 c-90 -26 -103 -67 -33 -102 58 -29 225 -29 275 1 49 28
48 63 -3 87 -49 24 -176 31 -239 14z"/>
<path d="M193 1861 c-18 -33 -33 -62 -33 -65 0 -3 18 -6 40 -6 61 0 86 -30 95
-111 3 -35 5 -203 3 -372 l-3 -309 -24 -19 c-16 -13 -39 -19 -72 -19 l-49 0 0
-55 0 -55 255 0 255 0 0 55 0 55 -49 0 c-39 0 -56 6 -80 26 l-31 26 0 147 c0
161 3 171 56 171 24 0 39 -8 58 -31 14 -17 26 -35 26 -40 0 -5 18 -9 40 -9
l40 0 0 160 0 160 -39 0 c-35 0 -40 -3 -46 -29 -8 -38 -38 -64 -75 -64 -54 0
-60 13 -60 145 0 113 1 120 25 143 l24 25 2071 0 2070 0 0 65 0 65 -2232 0
-2233 0 -32 -59z"/>
<path d="M3456 1670 c-70 -13 -106 -29 -145 -64 -42 -39 -61 -83 -61 -141 l0
-45 94 0 93 0 7 41 c16 103 85 146 166 104 36 -19 42 -38 38 -140 l-3 -80
-140 -13 c-170 -15 -216 -33 -253 -102 -22 -41 -23 -54 -19 -141 5 -112 20
-148 83 -192 54 -38 125 -46 397 -47 l217 0 0 45 c0 30 -4 45 -13 45 -7 0 -22
6 -33 14 -18 13 -19 32 -25 293 -5 298 -10 323 -60 370 -14 12 -44 29 -68 38
-53 18 -209 27 -275 15z m173 -427 c21 -17 22 -25 19 -158 l-3 -140 -71 -3
c-64 -3 -75 0 -100 22 -28 24 -29 26 -29 130 0 94 2 108 21 127 38 37 129 50
163 22z"/>
<path d="M1067 1649 c-83 -20 -138 -68 -157 -140 -7 -26 -10 -128 -8 -277 3
-232 4 -238 28 -281 14 -24 37 -53 51 -64 39 -28 132 -47 240 -47 208 0 309
70 309 216 l0 44 -99 0 -99 0 -4 -64 c-3 -45 -10 -71 -22 -85 -43 -48 -152
-35 -186 22 -16 26 -20 51 -20 133 0 64 4 104 12 112 9 9 70 12 215 12 l203 0
0 140 c0 97 -4 151 -14 173 -23 53 -65 85 -136 101 -71 17 -250 20 -313 5z
m215 -90 c11 -6 26 -26 34 -44 17 -42 19 -166 2 -183 -16 -16 -190 -16 -206 0
-7 7 -12 42 -12 85 0 77 16 124 47 142 24 14 109 14 135 0z"/>
<path d="M2135 1654 c-11 -3 -51 -20 -89 -37 l-69 -31 -21 27 c-22 27 -23 27
-149 27 l-127 0 0 -45 c0 -37 3 -45 18 -45 10 0 28 -10 40 -23 21 -23 22 -30
22 -284 0 -284 0 -285 -56 -299 -22 -6 -25 -11 -22 -48 l3 -41 178 -3 177 -2
0 45 c0 34 -4 45 -15 45 -9 0 -27 11 -40 25 l-25 24 0 229 0 228 33 31 c46 45
86 64 109 52 16 -9 18 -24 18 -154 l0 -145 106 0 105 0 -3 185 -3 185 -27 27
c-22 22 -37 27 -85 29 -32 2 -67 0 -78 -2z"/>
<path d="M2915 1654 c-11 -3 -51 -20 -89 -37 l-69 -31 -21 27 -22 28 -125 -3
-124 -3 -1 -38 c-1 -34 2 -40 27 -49 16 -6 34 -18 39 -28 6 -11 10 -128 10
-279 0 -248 -1 -262 -20 -281 -11 -11 -26 -20 -34 -20 -16 0 -22 -14 -21 -55
l0 -30 178 -3 177 -2 0 42 c0 39 -4 45 -33 58 l-32 15 -3 244 c-2 242 -2 245
20 269 13 13 41 33 62 44 l40 20 18 -22 c15 -19 18 -42 18 -156 l0 -134 100 0
100 0 0 180 0 180 -29 32 c-25 28 -35 32 -87 34 -32 2 -68 0 -79 -2z"/>
<path d="M4485 1654 c-11 -3 -51 -20 -89 -37 l-69 -31 -21 27 c-21 27 -23 27
-142 27 -66 0 -123 -2 -125 -4 -10 -10 4 -86 15 -86 7 0 22 -9 34 -20 22 -20
22 -26 22 -281 0 -150 -4 -268 -10 -279 -5 -10 -21 -21 -35 -24 -22 -6 -25
-12 -25 -51 l0 -45 175 0 175 0 0 43 c0 38 -3 44 -30 54 -17 6 -34 23 -40 38
-6 15 -10 122 -10 244 l0 219 41 36 c54 49 87 62 108 41 13 -12 17 -45 19
-155 l4 -140 99 0 100 0 -3 185 -3 185 -27 27 c-22 22 -37 27 -85 29 -32 2
-67 0 -78 -2z"/>
<path d="M4800 1596 c0 -38 3 -45 25 -50 13 -3 29 -15 35 -26 7 -12 9 -115 8
-287 l-3 -268 -32 -15 c-29 -13 -33 -19 -33 -57 l0 -43 175 0 175 0 0 44 c0
38 -3 45 -25 50 -13 3 -29 15 -35 26 -7 12 -9 115 -8 287 l3 268 32 15 c29 13
33 19 33 58 l0 42 -175 0 -175 0 0 -44z"/>
</g>
</svg>
